<?xml version="1.0" encoding="UTF-8" standalone="no"?>
<svg
   width="125.84546"
   height="175.07576"
   version="1.1"
   viewBox="0 0 125.84546 175.07576"
   id="svg1017"
   sodipodi:docname="gbasilveira.svg"
   inkscape:version="1.1.1 (3bf5ae0d25, 2021-09-20)"
   xmlns:inkscape="http://www.inkscape.org/namespaces/inkscape"
   xmlns:sodipodi="http://sodipodi.sourceforge.net/DTD/sodipodi-0.dtd"
   xmlns="http://www.w3.org/2000/svg"
   xmlns:svg="http://www.w3.org/2000/svg">
  <sodipodi:namedview
     id="namedview1019"
     pagecolor="#ffffff"
     bordercolor="#666666"
     borderopacity="1.0"
     inkscape:pageshadow="2"
     inkscape:pageopacity="0.0"
     inkscape:pagecheckerboard="false"
     showgrid="false"
     fit-margin-top="0"
     fit-margin-left="0"
     fit-margin-right="0"
     fit-margin-bottom="0"
     inkscape:zoom="1.0687624"
     inkscape:cx="276.02018"
     inkscape:cy="438.8253"
     inkscape:window-width="3840"
     inkscape:window-height="2066"
     inkscape:window-x="-11"
     inkscape:window-y="49"
     inkscape:window-maximized="1"
     inkscape:current-layer="svg1017"
     showborder="true"
     borderlayer="false" />
  <defs
     id="defs1003">
    <linearGradient
       id="linearGradient268133"
       x1="-50.115002"
       x2="1086.4"
       y1="384.48999"
       y2="384.48999"
       gradientUnits="userSpaceOnUse">
      <stop
         style="stop-color:#070a6f"
         offset="0"
         id="stop978" />
      <stop
         style="stop-color:#23c349"
         offset="1"
         id="stop980" />
    </linearGradient>
    <clipPath
       id="clipPath270069">
      <rect
         x="0.55682999"
         y="0.55682999"
         width="1017.3"
         height="573.53003"
         style="opacity:0.63132;fill:#070a6f"
         id="rect983" />
    </clipPath>
    <clipPath
       id="clipPath270073">
      <rect
         x="0.55682999"
         y="0.55682999"
         width="1017.3"
         height="573.53003"
         style="opacity:0.63132;fill:#070a6f"
         id="rect986" />
    </clipPath>
    <clipPath
       id="clipPath270077">
      <rect
         x="0.55682999"
         y="0.55682999"
         width="1017.3"
         height="573.53003"
         style="opacity:0.63132;fill:#070a6f"
         id="rect989" />
    </clipPath>
    <clipPath
       id="clipPath270081">
      <rect
         x="0.55682999"
         y="0.55682999"
         width="1017.3"
         height="573.53003"
         style="opacity:0.63132;fill:#070a6f"
         id="rect992" />
    </clipPath>
    <clipPath
       id="clipPath270085">
      <rect
         x="0.55682999"
         y="0.55682999"
         width="1017.3"
         height="573.53003"
         style="opacity:0.63132;fill:#070a6f"
         id="rect995" />
    </clipPath>
    <linearGradient
       id="linearGradient272147"
       x1="571.31"
       x2="446.01999"
       y1="373.63"
       y2="198.23"
       gradientUnits="userSpaceOnUse"
       gradientTransform="translate(-445.08334,-198.21228)">
      <stop
         style="stop-color:#1a8e3a"
         offset="0"
         id="stop998" />
      <stop
         style="stop-color:#0f20cb"
         offset="1"
         id="stop1000" />
    </linearGradient>
  </defs>
  <path
     d="m 58.546664,174.93772 c -3.555,-0.74037 -6.5594,-2.2808 -8.785,-4.5042 -1.8417,-1.8399 -1.8388,-1.841 -2.1648,0.82982 -0.14642,1.1996 -0.23333,1.3406 -0.87128,1.4144 -0.94376,0.10906 -4.1373,-1.0216 -5.97,-2.1137 -3.062,-1.8246 -6.2653,-5.478 -8.826,-10.066 l -1.0744,-1.925 0.1488,1.6466 c 0.0818,0.90564 0.38908,2.3303 0.68276,3.1658 0.61357,1.7457 0.61454,1.7509 0.29213,1.5516 -0.42672,-0.26373 -2.8491,-5.0085 -3.5524,-6.9582 -2.2754,-6.3079 -2.1023,-15.424 0.40727,-21.452 0.87417,-2.0999 2.0265,-3.7767 3.186,-4.636 l 0.72514,-0.53742 3.1113,1.4987 c 1.7112,0.82428 3.6471,1.6375 4.302,1.8071 1.0666,0.27631 1.2871,0.4756 2.1167,1.9128 3.1242,5.4124 8.2338,9.8692 13.408,11.695 2.4918,0.87934 3.2372,0.8421 4.2372,-0.21168 1.2224,-1.2881 1.7349,-2.513 1.8759,-4.483 0.13239,-1.8503 -0.1319,-3.3316 -0.92946,-5.2095 l -0.47093,-1.1088 -0.90983,0.67125 c -1.0062,0.74236 -1.7392,0.88446 -1.5123,0.29317 0.0798,-0.20795 0.22866,-0.82356 0.3308,-1.368 l 0.18571,-0.98995 -1.7668,0.97116 c -0.97175,0.53413 -1.8209,0.97116 -1.887,0.97116 -0.0661,0 -0.0918,-0.74414 -0.057,-1.6536 l 0.0631,-1.6536 -0.99219,0.0868 c -1.2134,0.1062 -1.2444,-0.14148 -0.24234,-1.9389 0.44719,-0.80217 0.88738,-1.2874 1.1183,-1.2326 3.2321,0.76676 6.8306,1.3611 8.2512,1.3628 1.5464,0.002 6.9347,-0.94947 8.1599,-1.4406 0.31377,-0.12577 0.63141,0.22854 1.2568,1.4018 0.46029,0.86358 0.83688,1.6584 0.83688,1.7664 0,0.10794 -0.48394,0.13133 -1.0754,0.052 -1.2961,-0.17385 -1.4898,0.13234 -1.0873,1.7183 0.1539,0.60633 0.21782,1.2028 0.14203,1.3254 -0.0758,0.12263 -0.80438,-0.13807 -1.6191,-0.57934 -1.6988,-0.9201 -2.2799,-1.0149 -2.0792,-0.33928 0.46317,1.559 0.47803,1.9182 0.0794,1.9182 -0.22289,0 -0.76478,-0.30253 -1.2042,-0.67228 -0.9496,-0.79903 -0.98117,-0.76354 -1.8587,2.0892 -0.66288,2.1549 -0.70201,3.5582 -0.15098,5.4137 0.4934,1.6614 2.1042,3.4881 3.0759,3.4881 1.1637,0 3.4726,-0.8124 5.8958,-2.0744 3.669,-1.9109 8.1019,-6.3836 10.567,-10.662 0.61173,-1.0616 0.87589,-1.269 1.9561,-1.5354 0.68688,-0.16946 2.5361,-0.9566 4.1094,-1.7492 1.5733,-0.79261 3.0178,-1.4411 3.21,-1.4411 0.67934,0 2.5593,2.2224 3.4478,4.0757 2.8203,5.8832 3.2965,14.595 1.1737,21.472 -0.72196,2.3389 -3.8085,8.544 -4.1033,8.2492 -0.0516,-0.0516 0.12669,-0.68209 0.39625,-1.401 0.51631,-1.377 1.1965,-4.8556 0.98979,-5.0623 -0.0667,-0.0667 -0.56945,0.69136 -1.1172,1.6846 -3.4386,6.2355 -7.4476,10.019 -12.433,11.735 -1.289,0.44347 -1.4668,0.45629 -1.3285,0.0958 0.0879,-0.22894 0.23897,-0.73262 0.33582,-1.1193 l 0.17608,-0.70302 -0.97832,0.85827 c -2.136,1.8739 -4.3641,2.4755 -13.685,3.695 -0.80628,0.10549 -1.2782,-0.0911 -3.175,-1.3226 -1.989,-1.2914 -5.2899,-3.0984 -5.66,-3.0984 -0.43558,0 0.0514,0.72202 1.58,2.3423 0.94589,1.0027 1.7198,1.8979 1.7198,1.9893 0,0.17829 -1.1171,0.17529 -1.9844,-0.005 z m -22.357,-54.804 c 0,-0.43213 1.4733,-2.2754 2.8039,-3.5081 3.6935,-3.4216 7.4432,-4.9602 14.521,-5.9585 3.7936,-0.53504 5.0261,-0.93634 6.1138,-1.9906 0.7284,-0.70598 0.85715,-0.74796 1.1631,-0.37926 0.68612,0.82673 -0.14093,5.731 -1.1501,6.8199 -0.31104,0.33561 -1.4888,0.93796 -2.6173,1.3386 l -2.0518,0.72838 -0.5778,-0.53831 c -0.3178,-0.29608 -0.7366,-0.53832 -0.93067,-0.53832 -0.19407,0 -1.2856,0.46898 -2.4256,1.0422 -1.2743,0.6407 -2.4187,1.034 -2.9707,1.0209 -0.49385,-0.0117 -1.4676,0.20394 -2.1638,0.47918 -0.95809,0.37876 -1.314,0.42279 -1.4638,0.1811 -0.15278,-0.24655 -0.43719,-0.23412 -1.2476,0.0545 -1.2971,0.46195 -2.3582,0.49328 -3.0059,0.0887 -0.40355,-0.25202 -0.70504,-0.18568 -1.65,0.3631 -1.3821,0.8026 -2.3469,1.1301 -2.3469,0.79654 z m 51.475,-0.63024 c -1.2603,-0.65007 -1.6682,-0.75298 -2.0469,-0.51644 -0.64756,0.40441 -1.6406,0.3704 -2.7528,-0.0943 -0.71823,-0.3001 -1.0441,-0.32011 -1.4173,-0.087 -0.3832,0.23931 -0.75376,0.18719 -1.7708,-0.2491 -0.70742,-0.30346 -1.5839,-0.49658 -1.9477,-0.42915 -0.42741,0.0792 -1.4408,-0.25648 -2.864,-0.94871 -1.2114,-0.58922 -2.3348,-1.0713 -2.4965,-1.0713 -0.1617,0 -0.56511,0.25471 -0.89648,0.56601 l -0.60248,0.566 -1.3157,-0.566 c -0.72364,-0.3113 -1.4929,-0.56601 -1.7094,-0.56601 -0.64436,0 -1.9657,-1.2772 -2.2671,-2.1915 -0.38807,-1.1771 -0.83255,-4.8581 -0.64548,-5.3456 0.2144,-0.55873 0.56197,-0.5015 1.4397,0.23705 1.0579,0.89019 2.7266,1.3789 6.8299,2.0004 6.0166,0.91128 9.0994,2.0986 12.639,4.868 1.5937,1.247 3.069,2.8862 3.9008,4.3343 0.30747,0.53526 -0.38371,0.36666 -2.0766,-0.50657 z m -76.353,-3.6281 c -0.80448,-0.25749 -2.1737005,-0.84805 -3.0427005,-1.3124 -2.0953,-1.1195 -5.8363,-4.0889 -6.303,-5.003 -1.39869998,-2.7395 -2.22389998,-16.094999 -1.89319998,-30.643999 l 0.19774,-8.7008 0.90261998,-0.82678 c 0.82297,-0.7538 0.87728,-0.89346 0.61537,-1.5823 -0.15799,-0.41556 -0.51101,-1.563 -0.78447,-2.5498 l -0.49720998,-1.7942 0.67152998,-2.7977 c 0.36935,-1.5387 0.72314,-2.7461 0.78622,-2.683 0.0631,0.0631 -0.14724,1.4098 -0.46738,2.9928 l -0.58206998,2.8781 0.71793998,2.3325 c 0.39487,1.2829 0.80101,2.2898 0.90255,2.2376 1.29,-0.66364 3.8754,-1.7929 4.1119,-1.796 0.16834,-0.002 0.47324,-0.10989 0.67755,-0.23924 0.30283,-0.19173 0.11423,-0.83065 -1.0205,-3.4572 -1.3592,-3.1461 -1.3842,-3.2497 -1.0626,-4.3986 0.18118,-0.64712 0.38439,-1.1216 0.45157,-1.0544 0.0672,0.0672 -0.0225,0.5606 -0.1994,1.0965 -0.30373,0.92031 -0.24447,1.1537 1.0691,4.2113 l 1.3906,3.237 1.5956,0.29674 c 0.8776105,0.16321 1.7196005,0.42065 1.8710005,0.57209 0.24329,0.24329 0.4498,3.096 1.0729,14.821 0.0889,1.6735 0.22057,3.9952 0.29251,5.1594 0.29367,4.7517 0.91365,18.357999 1.082,23.745999 l 0.17981,5.7547 -0.63668,-0.0142 c -0.35018,-0.008 -1.2949,-0.2249 -2.0994,-0.48238 z m 2.036,-2.0831 c -0.4004,-4.3575 -2.2916,-41.560999 -2.2927,-45.101999 -5.3e-4,-1.5168 -0.43572,-1.833 -2.5226005,-1.833 -2.146,0 -2.765,0.41449 -3.6128,2.419 -0.9638,2.2789 -0.9557,4.002 0.0467,9.9488 0.43502,2.5806 0.86578,5.4226 0.95725,6.3154 0.18194,1.7758 -0.16776,6.1551 -0.95134,11.914 -0.77589,5.702199 -0.89387,7.978599 -0.54815,10.576999 0.45484,3.4179 0.69819,3.8518 2.8301,5.0457 2.2293,1.2484 5.0828005,2.485 5.7566005,2.4946 0.45879,0.007 0.48719,-0.14337 0.33692,-1.7788 z M 2.7536635,92.526281 c -0.0909,-0.45476 -0.16537,-1.943 -0.16537,-3.3073 v -2.4805 h -0.68612 c -0.65333,0 -0.67927,0.0537 -0.54262,1.1245 0.0789,0.61847 0.14957,2.1068 0.15696,3.3073 0.0134,2.1762 0.0155,2.1828 0.70798,2.1828 0.63677,0 0.68078,-0.0688 0.52917,-0.82682 z M 111.99366,116.10128 c -0.18438,-0.29834 -0.14286,-1.6696 0.4164,-13.752 0.42989,-9.287699 1.5492,-30.919999 1.7199,-33.237999 0.17798,-2.4177 0.28697,-2.5397 2.5767,-2.883 l 1.2065,-0.18093 1.3415,-3.0478 c 0.73782,-1.6763 1.3415,-3.2102 1.3415,-3.4085 0,-0.19838 -0.14248,-0.89338 -0.31661,-1.5444 -0.25925,-0.96929 -0.23644,-1.701 0.12589,-4.0387 0.72634,-4.6862 0.75562,-5.1942 0.46439,-8.0572 -0.42423,-4.1706 -1.3511,-7.2604 -3.4398,-11.466 -7.6441,-15.393 -25.776996,-27.0549997 -46.879996,-30.1479997 -6.5761,-0.96397 -11.539,-0.7925 -18.745,0.64769 -7.3967,1.4782 -12.615,3.2512 -18.875,6.4126997 -14.133,7.1376 -23.9910005,17.997 -27.0850005,29.835 -0.96877,3.7067 -1.1226,8.9644 -0.36893,12.609 0.30563,1.4781 0.55569,2.7916 0.55569,2.9191 0,0.1275 -0.83344,0.18458 -1.8521,0.12702 -1.6384,-0.0926 -1.8521,-0.0503 -1.8521,0.36617 0,0.25896 -0.0742,0.39659 -0.16498,0.30585 -0.0907,-0.0907 -0.072,-0.37847 0.0417,-0.6394 0.11368,-0.26094 0.22089,-3.1533 0.23824,-6.4276 0.0277,-5.2285 0.10648,-6.2744 0.64717,-8.5929 1.9564,-8.3891 5.6953,-15.635 11.3370005,-21.969 3.8549,-4.3287 7.7691,-7.5479 13.037,-10.7219997 8.3894,-5.0549 17.277,-7.9237 27.882,-9.00000002 4.0167,-0.40763 15.14,-0.18351 18.859,0.37998 10.88,1.64830002 20.946,5.76540002 29.457996,12.04899972 2.4288,1.7929 7.1935,6.3692 9.2777,8.9108 7.6154,9.2866 11.592,21.135 10.587,31.545 -0.20477,2.1215 -0.22489,3.3708 -0.0575,3.5719 0.19252,0.23132 -0.11064,0.28602 -1.2029,0.21707 -0.80317,-0.0507 -1.5557,0.009 -1.6723,0.13229 -0.11658,0.12347 -0.0822,0.84367 0.0764,1.6004 0.28077,1.3396 0.25606,1.448 -0.9348,4.101 -0.67275,1.4988 -1.2953,2.9131 -1.3835,3.1429 -0.12107,0.31566 0.11742,0.50095 0.97519,0.75764 0.6245,0.18689 1.8139,0.68207 2.6431,1.1004 0.82922,0.41833 1.5607,0.67271 1.6256,0.56527 0.0648,-0.10743 0.41695,-1.1724 0.78246,-2.3666 l 0.66456,-2.1712 -0.64242,-2.9703 c -0.86473,-3.9982 -0.65409,-4.2792 0.29356,-0.39147 l 0.75842,3.1114 -0.61551,2.0318 c -0.93997,3.1028 -0.95018,3.3185 -0.17674,3.7325 0.36805,0.19698 0.75768,0.54976 0.86585,0.78396 0.10817,0.2342 0.24359,5.486 0.30094,11.671 0.1427,15.39 -0.58683,25.745999 -1.9758,28.045999 -0.45484,0.75328 -3.5344,3.2385 -5.5052,4.4427 -2.4908,1.522 -5.9486,2.5568 -6.3536,1.9014 z m 5.0971,-2.249 c 1.8432,-0.9094 3.1474,-1.7291 3.4249,-2.1525 1.1326,-1.7286 1.4518,-6.9692 0.73079,-11.996999 -1.438,-10.027 -1.4983,-13.406 -0.35654,-19.992 1.096,-6.3218 1.1163,-7.9148 0.13255,-10.361 -0.63181,-1.5707 -0.90258,-1.9485 -1.5608,-2.178 -0.94936,-0.33095 -3.6151,-0.3615 -4.111,-0.0471 -0.26468,0.1678 -0.44204,2.1968 -0.72242,8.2642 -1.0195,22.061 -1.8566,37.456999 -2.1333,39.235999 l -0.16047,1.0312 0.88975,-0.16753 c 0.48936,-0.0922 2.2293,-0.82846 3.8666,-1.6362 z m 7.3031,-22.523999 c 0.30583,-3.6179 0.2382,-4.5903 -0.31922,-4.5903 -0.41977,0 -0.51498,0.29136 -0.66146,2.0243 -0.30583,3.6179 -0.2382,4.5903 0.31922,4.5903 0.41977,0 0.51498,-0.29137 0.66146,-2.0243 z M 60.797864,103.19128 c -0.80199,-0.26495 -2.0031,-0.80106 -2.6691,-1.1914 -0.666,-0.3903 -1.3922,-0.70964 -1.6138,-0.70964 -0.2216,0 -0.84147,-0.29766 -1.3776,-0.66146 -0.5361,-0.3638 -1.155,-0.661459 -1.3755,-0.661459 -0.2204,0 -0.32715,-0.11906 -0.23722,-0.26458 0.4097,-0.6629 1.9537,-0.24026 3.9983,1.094399 1.9627,1.2812 4.407,2.3452 5.3878,2.3452 1.0969,0 3.2877,-0.90734 5.1913,-2.15 2.0631,-1.346799 3.8288,-1.903099 4.1893,-1.319799 0.10022,0.16215 0.0197,0.29482 -0.17887,0.29482 -0.1986,0 -0.76454,0.297659 -1.2576,0.661459 -0.49306,0.3638 -1.0727,0.66146 -1.288,0.66146 -0.2153,0 -1.353,0.47845 -2.5283,1.0632 -2.6138,1.3006 -4.1968,1.5131 -6.2408,0.83778 z m -10.254,-3.325899 c -0.46392,-0.52837 -0.87831,-1.3646 -0.98286,-1.9835 -0.33958,-2.01 0.97597,-5.0319 2.5595,-5.8794 0.87755,-0.46965 0.85956,-0.0369 -0.0296,0.71127 -1.2335,1.0379 -1.9523,2.6252 -1.978,4.3679 -0.0182,1.2374 0.10132,1.6413 0.72941,2.4648 0.96985,1.271499 0.74698,1.509699 -0.29849,0.31894 z m 24.382,-0.0115 c 1.503,-1.9755 1.1797,-4.661 -0.81822,-6.7969 -1.4121,-1.5097 -0.93244,-1.7866 0.51894,-0.29951 2.2448,2.3 2.3692,6.2488 0.24068,7.639399 l -0.70481,0.46047 z m -19.596,-15.365 c 0.50519,-1.7692 1.0252,-5.1509 1.2536,-8.1521 0.14484,-1.9032 0.31953,-3.5165 0.38821,-3.5852 0.28674,-0.28674 0.0928,4.5102 -0.27135,6.7102 -0.43258,2.6137 -1.0556,5.118 -1.3397,5.3852 -0.10004,0.0941 -0.11389,-0.067 -0.0308,-0.35809 z m -6.8877,-18.653 c -2.5309,-0.89987 -11.287,-5.098 -14.1,-6.7599 -3.8154,-2.2546 -7.6154,-4.1286 -7.7222,-3.8084 -0.0579,0.1736 -0.38759,0.16146 -0.95121,-0.035 -0.57478,-0.20037 -0.97118,-0.21313 -1.1878,-0.0383 -0.17886,0.14437 -0.86099,0.34417 -1.5158,0.44402 -1.8255,0.27833 -2.2437,0.43001 -1.8524,0.67186 0.20978,0.12965 -0.0727,0.27529 -0.75879,0.3912 -0.60114,0.10156 -1.093,0.29326 -1.093,0.42599 0,0.13273 -0.20836,0.24368 -0.46302,0.24655 -0.25466,0.003 -1.4448,0.35147 -2.6447,0.77466 l -2.1817,0.76945 0.69453,-0.91058 c 1.4139,-1.8538 7.4838,-5.6611 9.0393,-5.6699 0.55886,-0.003 0.62835,-0.0601 0.31816,-0.26053 -0.42433,-0.27423 -0.30736,-0.29803 1.9844,-0.40393 0.90677,-0.0419 2.4409,0.25266 4.2897,0.82362 0.26005,0.0803 0.17517,-0.0366 -0.18863,-0.25975 -0.3638,-0.22317 -0.86982,-0.40999 -1.1245,-0.41515 -0.25466,-0.005 -0.46302,-0.12844 -0.46302,-0.27396 0,-0.3725 0.12536,-0.34303 1.5302,0.35972 1.3719,0.68633 4.3104,1.8628 5.349,2.1417 l 0.66145,0.17759 -0.66145,-0.56249 c -0.3822,-0.325 0.23219,-0.0991 1.4552,0.53501 1.8401,0.95408 2.013,1.0038 1.3229,0.38008 l -0.79375,-0.71741 1.3229,0.73674 c 0.7276,0.4052 1.8278,1.0801 2.4449,1.4997 0.6171,0.4196 2.6617,1.5352 4.5435,2.479 4.8238,2.4194 7.2533,4.7647 6.8012,6.5658 -0.31622,1.2599 -1.7641,1.5071 -4.0555,0.6924 z m 25.141,-0.43585 c -0.44404,-0.67769 -0.43719,-0.73886 0.21474,-1.9182 0.5437,-0.98356 1.1787,-1.5393 3.2968,-2.8853 1.4429,-0.91687 3.407,-2.0691 4.3646,-2.5605 0.95767,-0.49139 2.8592,-1.6164 4.2257,-2.5001 1.3665,-0.8837 2.607,-1.6047 2.7567,-1.6022 0.14972,0.002 -0.11473,0.25227 -0.58767,0.55515 -1.4442,0.92489 -0.96291,0.82331 1.0583,-0.22338 2.3364,-1.2099 2.6884,-1.343 1.6536,-0.62552 -0.43656,0.30271 -0.72412,0.55117 -0.63901,0.55213 0.49553,0.006 3.791,-1.2382 5.3177,-2.007 1.7971,-0.90502 2.4941,-1.112 2.2131,-0.65741 -0.083,0.13432 -0.5054,0.32208 -0.93863,0.41723 -0.43322,0.0951 -0.84842,0.27129 -0.92266,0.39141 -0.0742,0.12012 0.609,0.004 1.5183,-0.25867 1.4724,-0.42486 2.3937,-0.48527 4.695996,-0.30789 0.53045,0.0409 0.58285,0.10176 0.26458,0.30744 -0.32211,0.20817 -0.28676,0.25724 0.18763,0.26053 0.81629,0.006 4.6589,2.0296 6.5491,3.4494 1.4917,1.1205 3.0281,2.5945 3.0451,2.9213 0.004,0.0819 -0.97451,-0.18342 -2.1751,-0.58968 -1.2005,-0.40626 -2.3912,-0.74119 -2.6458,-0.74429 -0.25466,-0.003 -0.46302,-0.10948 -0.46302,-0.2364 0,-0.12692 -0.50367,-0.31131 -1.1193,-0.40975 -0.79995,-0.12791 -1.0115,-0.2456 -0.7414,-0.41251 0.45252,-0.27967 -0.58816,-0.59912 -2.0868,-0.64057 -0.52102,-0.0144 -1.0429,-0.17571 -1.1598,-0.35845 -0.13705,-0.21435 -0.46567,-0.2676 -0.92604,-0.15005 -0.39248,0.10021 -0.942616,0.16627 -1.222496,0.1468 -0.27991,-0.0195 -5.3752,2.3995 -11.323,5.3756 -10.422,5.2146 -10.871,5.411 -12.383,5.411 -1.4051,0 -1.6174,-0.0733 -2.028,-0.70002 z"
     style="fill:url(#linearGradient272147);stroke-width:0.26458"
     id="path1005" />
  <circle
     cx="-47.330002"
     cy="596.91998"
     r="0"
     clip-path="url(#clipPath270085)"
     style="fill:#000000;stroke:#000000;stroke-width:0.26458"
     id="circle1007"
     transform="translate(-438.37006,-152.64908)" />
  <circle
     cx="-47.330002"
     cy="596.91998"
     r="0"
     clip-path="url(#clipPath270081)"
     style="fill:#000000;stroke:#000000;stroke-width:0.26458"
     id="circle1009"
     transform="translate(-438.37006,-152.64908)" />
</svg>
