<?xml version="1.0" encoding="UTF-8" standalone="no"?>
<svg
   width="223.7076"
   height="223.64662"
   viewBox="0 0 223.7076 223.64662"
   fill="none"
   version="1.1"
   id="svg8"
   sodipodi:docname="opensea.svg"
   inkscape:version="1.1.1 (3bf5ae0d25, 2021-09-20)"
   xmlns:inkscape="http://www.inkscape.org/namespaces/inkscape"
   xmlns:sodipodi="http://sodipodi.sourceforge.net/DTD/sodipodi-0.dtd"
   xmlns="http://www.w3.org/2000/svg"
   xmlns:svg="http://www.w3.org/2000/svg">
  <defs
     id="defs12">
    <clipPath
       clipPathUnits="userSpaceOnUse"
       id="clipPath5893">
      <g
         id="g5897"
         transform="matrix(0.55012033,0,0,0.55012033,-108.21655,0.57288567)">
        <path
           fill="url(#d)"
           d="m 278.53583,15.764395 c -27.142,0 -35.08,0.028 -36.623,0.156 -5.57,0.463 -9.036,1.34 -12.812,3.22 -2.91,1.445 -5.205,3.12 -7.47,5.468 -4.125,4.282 -6.625,9.55 -7.53,15.812 -0.44,3.04 -0.568,3.66 -0.594,19.188 -0.01,5.176 0,11.988 0,21.125 0,27.120005 0.03,35.050005 0.16,36.590005 0.45,5.42 1.3,8.83 3.1,12.56 3.44,7.14 10.01,12.5 17.75,14.5 2.68,0.69 5.64,1.07 9.44,1.25 1.61,0.07 18.02,0.12 34.44,0.12 16.42,0 32.84,-0.02 34.41,-0.1 4.4,-0.207 6.955,-0.55 9.78,-1.28 7.79,-2.01 14.24,-7.29 17.75,-14.53 1.765,-3.64 2.66,-7.18 3.065,-12.317 0.088,-1.12 0.125,-18.977005 0.125,-36.810005 0,-17.836 -0.04,-35.66 -0.128,-36.78 -0.41,-5.22 -1.305,-8.73 -3.127,-12.44 -1.495,-3.037 -3.155,-5.305 -5.565,-7.624 -4.301,-4.108 -9.561,-6.608 -15.829,-7.512 -3.037,-0.439 -3.642,-0.569 -19.182,-0.596 z"
           id="path5895"
           style="fill:#f70000;fill-opacity:1" />
      </g>
    </clipPath>
  </defs>
  <sodipodi:namedview
     id="namedview10"
     pagecolor="#ffffff"
     bordercolor="#666666"
     borderopacity="1.0"
     inkscape:pageshadow="2"
     inkscape:pageopacity="0.0"
     inkscape:pagecheckerboard="0"
     showgrid="false"
     fit-margin-top="0"
     fit-margin-left="0"
     fit-margin-right="0"
     fit-margin-bottom="0"
     inkscape:zoom="3.4294679"
     inkscape:cx="-85.727585"
     inkscape:cy="110.22118"
     inkscape:window-width="3840"
     inkscape:window-height="2066"
     inkscape:window-x="-11"
     inkscape:window-y="49"
     inkscape:window-maximized="1"
     inkscape:current-layer="svg8" />
  <g
     id="g5891"
     transform="matrix(1.7205042,0,0,1.7205042,-367.33175,-27.122708)"
     style="fill:#2081e2;fill-opacity:1">
    <path
       fill="url(#d)"
       d="m 278.53583,15.764395 c -27.142,0 -35.08,0.028 -36.623,0.156 -5.57,0.463 -9.036,1.34 -12.812,3.22 -2.91,1.445 -5.205,3.12 -7.47,5.468 -4.125,4.282 -6.625,9.55 -7.53,15.812 -0.44,3.04 -0.568,3.66 -0.594,19.188 -0.01,5.176 0,11.988 0,21.125 0,27.120005 0.03,35.050005 0.16,36.590005 0.45,5.42 1.3,8.83 3.1,12.56 3.44,7.14 10.01,12.5 17.75,14.5 2.68,0.69 5.64,1.07 9.44,1.25 1.61,0.07 18.02,0.12 34.44,0.12 16.42,0 32.84,-0.02 34.41,-0.1 4.4,-0.207 6.955,-0.55 9.78,-1.28 7.79,-2.01 14.24,-7.29 17.75,-14.53 1.765,-3.64 2.66,-7.18 3.065,-12.317 0.088,-1.12 0.125,-18.977005 0.125,-36.810005 0,-17.836 -0.04,-35.66 -0.128,-36.78 -0.41,-5.22 -1.305,-8.73 -3.127,-12.44 -1.495,-3.037 -3.155,-5.305 -5.565,-7.624 -4.301,-4.108 -9.561,-6.608 -15.829,-7.512 -3.037,-0.439 -3.642,-0.569 -19.182,-0.596 z"
       id="path5889"
       style="fill:#2081e2;fill-opacity:1" />
  </g>
  <g
     id="g11260"
     transform="matrix(3.7795276,0,0,3.7795276,-2008.6603,864.25327)">
    <path
       d="m 540.82976,-196.14623 0.1607,-0.25247 9.6868,-15.15375 c 0.1415,-0.22193 0.4744,-0.19892 0.58147,0.042 1.61832,3.62687 3.0147,8.13741 2.36049,10.94549 -0.27928,1.15533 -1.04437,2.72011 -1.90521,4.16622 -0.11096,0.21043 -0.23335,0.41705 -0.36343,0.61598 -0.0612,0.0918 -0.1645,0.14539 -0.27547,0.14539 h -9.96226 c -0.26778,0 -0.42459,-0.29078 -0.28309,-0.5089 z"
       fill="#ffffff"
       id="path2044"
       style="stroke-width:0.827486" />
    <path
       d="m 584.00706,-193.33038 v 2.39871 c 0,0.1377 -0.0842,0.26017 -0.20654,0.3137 -0.74987,0.3214 -3.31698,1.49974 -4.38435,2.98408 -2.72392,3.79129 -4.80513,9.2124 -9.45725,9.2124 h -19.40794 c -6.87872,0 -12.45283,-5.59322 -12.45283,-12.49487 v -0.22193 c 0,-0.18362 0.1492,-0.33281 0.3329,-0.33281 h 10.81913 c 0.21423,0 0.37112,0.19892 0.35201,0.40935 -0.0765,0.70395 0.0535,1.4232 0.38635,2.07741 0.64279,1.30453 1.97413,2.11944 3.41264,2.11944 h 5.35598 v -4.18154 h -5.29483 c -0.27158,0 -0.43228,-0.3137 -0.27539,-0.53563 0.0573,-0.088 0.12238,-0.17981 0.19123,-0.28308 0.50121,-0.71156 1.21657,-1.81724 1.92821,-3.07593 0.48582,-0.84925 0.95641,-1.75601 1.33515,-2.66649 0.0765,-0.16451 0.13777,-0.33282 0.19892,-0.4974 0.10336,-0.2907 0.21043,-0.56236 0.28698,-0.83394 0.0765,-0.22955 0.13769,-0.4706 0.19892,-0.69633 0.17982,-0.77279 0.25636,-1.59151 0.25636,-2.44084 0,-0.33281 -0.0153,-0.68094 -0.0459,-1.01383 -0.0153,-0.36344 -0.0612,-0.72687 -0.10716,-1.0903 -0.0306,-0.32139 -0.088,-0.6389 -0.14919,-0.97172 -0.0765,-0.4859 -0.18362,-0.96791 -0.30609,-1.45381 l -0.042,-0.18361 c -0.0919,-0.33282 -0.16832,-0.65041 -0.27547,-0.98322 -0.3022,-1.04446 -0.65041,-2.0621 -1.01765,-3.0147 -0.13388,-0.37874 -0.28697,-0.74217 -0.43997,-1.1056 -0.22574,-0.54714 -0.45528,-1.04446 -0.66563,-1.51505 -0.10716,-0.21423 -0.19901,-0.40935 -0.29078,-0.60828 -0.10327,-0.22574 -0.21043,-0.45139 -0.3175,-0.66571 -0.0765,-0.16451 -0.16459,-0.31751 -0.22574,-0.47051 l -0.65421,-1.20896 c -0.0919,-0.1645 0.0612,-0.35962 0.24096,-0.30989 l 4.09357,1.10949 h 0.0115 c 0.008,0 0.0115,0.004 0.0153,0.004 l 0.53944,0.14919 0.59298,0.16831 0.21804,0.0612 v -2.43314 c 0,-1.17453 0.94118,-2.12714 2.10421,-2.12714 0.58148,0 1.10941,0.23716 1.48815,0.6236 0.37874,0.38643 0.61598,0.91437 0.61598,1.50354 v 3.61148 l 0.43609,0.12238 c 0.0345,0.0115 0.0689,0.0268 0.0996,0.0497 0.10707,0.0804 0.26007,0.19901 0.4552,0.34432 0.15308,0.12247 0.31758,0.27166 0.51651,0.42467 0.39405,0.31759 0.86456,0.72694 1.38108,1.19745 0.13769,0.11866 0.27166,0.24105 0.39404,0.36352 0.66572,0.6197 1.4117,1.34665 2.12333,2.15005 0.19893,0.22566 0.39405,0.4552 0.59298,0.69625 0.19893,0.24485 0.40936,0.4859 0.59298,0.72694 0.24104,0.32132 0.50112,0.65413 0.72686,1.00234 0.10716,0.1645 0.22954,0.33281 0.3329,0.49732 0.29069,0.43997 0.54705,0.89525 0.7919,1.35045 0.10327,0.21043 0.21043,0.43998 0.3022,0.66572 0.27166,0.60828 0.4859,1.22807 0.62359,1.84785 0.0421,0.13389 0.0727,0.27928 0.0881,0.40936 v 0.0305 c 0.0458,0.1837 0.0611,0.37882 0.0765,0.57775 0.0612,0.63501 0.0306,1.2701 -0.10708,1.90901 -0.0574,0.27166 -0.13389,0.52793 -0.22574,0.7996 -0.0918,0.26016 -0.18362,0.53174 -0.3022,0.78809 -0.22954,0.53175 -0.5012,1.06357 -0.8226,1.56089 -0.10327,0.18362 -0.22566,0.37874 -0.34812,0.56236 -0.13389,0.19512 -0.27158,0.37882 -0.39405,0.55863 -0.16831,0.22955 -0.34813,0.47051 -0.53174,0.68475 -0.16451,0.22574 -0.3329,0.45148 -0.51652,0.6504 -0.25627,0.3022 -0.50113,0.58917 -0.75748,0.86464 -0.153,0.17982 -0.31751,0.36343 -0.4859,0.52794 -0.16451,0.18362 -0.33282,0.34812 -0.48582,0.50112 -0.25635,0.25636 -0.47059,0.45529 -0.6504,0.61979 l -0.42086,0.38644 c -0.0611,0.0535 -0.1415,0.0841 -0.22566,0.0841 h -3.25955 v 4.18154 h 4.10119 c 0.91818,0 1.79043,-0.32521 2.49437,-0.92199 0.24105,-0.21043 1.29311,-1.12099 2.53649,-2.49437 0.042,-0.0459 0.0957,-0.0804 0.15681,-0.0957 l 11.32803,-3.27486 c 0.21043,-0.0612 0.42467,0.0995 0.42467,0.3214 z"
       fill="#ffffff"
       id="path2046"
       style="stroke-width:0.827486" />
  </g>
</svg>
