<?xml version="1.0" encoding="UTF-8" standalone="no"?>
<!-- Generator: Adobe Illustrator 16.0.0, SVG Export Plug-In . SVG Version: 6.00 Build 0)  -->

<svg
   version="1.1"
   id="Layer_1"
   x="0px"
   y="0px"
   width="223.70761"
   height="223.64664"
   viewBox="0 0 447.41522 447.29328"
   enable-background="new 0 0 1000 291.379"
   xml:space="preserve"
   sodipodi:docname="tiktok.svg"
   inkscape:version="1.1.1 (3bf5ae0d25, 2021-09-20)"
   xmlns:inkscape="http://www.inkscape.org/namespaces/inkscape"
   xmlns:sodipodi="http://sodipodi.sourceforge.net/DTD/sodipodi-0.dtd"
   xmlns="http://www.w3.org/2000/svg"
   xmlns:svg="http://www.w3.org/2000/svg"><defs
   id="defs21" /><sodipodi:namedview
   id="namedview19"
   pagecolor="#ffffff"
   bordercolor="#666666"
   borderopacity="1.0"
   inkscape:pageshadow="2"
   inkscape:pageopacity="0.0"
   inkscape:pagecheckerboard="0"
   showgrid="false"
   fit-margin-top="0"
   fit-margin-left="0"
   fit-margin-right="0"
   fit-margin-bottom="0"
   inkscape:zoom="2.902"
   inkscape:cx="-23.087526"
   inkscape:cy="225.36182"
   inkscape:window-width="3840"
   inkscape:window-height="2066"
   inkscape:window-x="-11"
   inkscape:window-y="49"
   inkscape:window-maximized="1"
   inkscape:current-layer="Layer_1" />

<g
   id="g5635"
   transform="matrix(7.5590552,0,0,7.5590552,-2864.8602,797.43233)"><g
     id="g5887"
     transform="translate(97.214461,-25.443785)"><g
       id="g3422"
       transform="matrix(0.45521674,0,0,0.45521674,184.5928,-87.226082)"
       style="fill:#000000;fill-opacity:1"><path
         fill="url(#d)"
         d="m 278.53583,15.764395 c -27.142,0 -35.08,0.028 -36.623,0.156 -5.57,0.463 -9.036,1.34 -12.812,3.22 -2.91,1.445 -5.205,3.12 -7.47,5.468 -4.125,4.282 -6.625,9.55 -7.53,15.812 -0.44,3.04 -0.568,3.66 -0.594,19.188 -0.01,5.176 0,11.988 0,21.125 0,27.120005 0.03,35.050005 0.16,36.590005 0.45,5.42 1.3,8.83 3.1,12.56 3.44,7.14 10.01,12.5 17.75,14.5 2.68,0.69 5.64,1.07 9.44,1.25 1.61,0.07 18.02,0.12 34.44,0.12 16.42,0 32.84,-0.02 34.41,-0.1 4.4,-0.207 6.955,-0.55 9.78,-1.28 7.79,-2.01 14.24,-7.29 17.75,-14.53 1.765,-3.64 2.66,-7.18 3.065,-12.317 0.088,-1.12 0.125,-18.977005 0.125,-36.810005 0,-17.836 -0.04,-35.66 -0.128,-36.78 -0.41,-5.22 -1.305,-8.73 -3.127,-12.44 -1.495,-3.037 -3.155,-5.305 -5.565,-7.624 -4.301,-4.108 -9.561,-6.608 -15.829,-7.512 -3.037,-0.439 -3.642,-0.569 -19.182,-0.596 z"
         id="path3420"
         style="fill:#000000;fill-opacity:1" /></g><path
       fill="#ff004f"
       d="m 319.60234,-55.822152 c 2.48894,1.778265 5.538,2.82456 8.83113,2.82456 v -6.333728 c -0.62322,1.32e-4 -1.24486,-0.06482 -1.85459,-0.19394 v 4.985544 c -3.29288,0 -6.34154,-1.046295 -8.83113,-2.824427 v 12.925293 c 0,6.465887 -5.24431,11.707151 -11.71311,11.707151 -2.41366,0 -4.65706,-0.729324 -6.52066,-1.980142 2.12699,2.173685 5.09323,3.522134 8.37486,3.522134 6.4692,0 11.71377,-5.241264 11.71377,-11.707416 v -12.925029 z m 2.28785,-6.389952 c -1.27198,-1.38893 -2.10714,-3.183863 -2.28785,-5.168238 v -0.814653 h -1.75749 c 0.44238,2.522141 1.9513,4.676908 4.04534,5.982891 z m -18.28469,22.538532 c -0.71067,-0.931333 -1.09471,-2.070629 -1.09299,-3.242072 0,-2.957248 2.39871,-5.355034 5.35808,-5.355034 0.55152,-1.33e-4 1.09974,0.08427 1.62533,0.250957 v -6.475281 c -0.61423,-0.08414 -1.23415,-0.119856 -1.8538,-0.106759 v 5.040048 c -0.52599,-0.166687 -1.07448,-0.251354 -1.62613,-0.250825 -2.95937,0 -5.35795,2.397522 -5.35795,5.355167 0,2.091267 1.19896,3.90181 2.94746,4.783799 z"
       id="path1195"
       style="stroke-width:0.132292" /><path
       d="m 317.74775,-57.364276 c 2.48959,1.778133 5.53825,2.824428 8.83113,2.824428 v -4.985544 c -1.83806,-0.391319 -3.46525,-1.35136 -4.68869,-2.686712 -2.09417,-1.306115 -3.60296,-3.460882 -4.04534,-5.982891 h -4.61645 v 25.297607 c -0.0105,2.949179 -2.40506,5.337175 -5.35808,5.337175 -1.74016,0 -3.28612,-0.829071 -4.26522,-2.113359 -1.74836,-0.881989 -2.94732,-2.692665 -2.94732,-4.783667 0,-2.95738 2.39858,-5.355167 5.35794,-5.355167 0.56701,0 1.1135,0.08824 1.62613,0.250825 v -5.040048 c -6.35516,0.131234 -11.46625,5.321301 -11.46625,11.704374 0,3.186377 1.27278,6.074965 3.33852,8.185547 1.86359,1.250685 4.10699,1.980141 6.52065,1.980141 6.46893,0 11.71311,-5.241528 11.71311,-11.707283 v -12.925426 z"
       id="path1197"
       style="fill:#ffffff;fill-opacity:1;stroke-width:0.132292" /><path
       fill="#00f2ea"
       d="m 326.57888,-59.525392 v -1.348052 c -1.65749,0.0025 -3.28242,-0.461434 -4.68869,-1.338792 1.24487,1.362207 2.8841,2.301478 4.68869,2.686844 z m -8.73403,-8.669603 c -0.0422,-0.241035 -0.0746,-0.483658 -0.0971,-0.727207 v -0.814652 h -6.37408 v 25.297871 c -0.0102,2.948782 -2.40467,5.336779 -5.35795,5.336779 -0.86704,0 -1.68566,-0.205714 -2.41062,-0.571236 0.9791,1.284156 2.52506,2.113095 4.26522,2.113095 2.95275,0 5.34776,-2.387732 5.35808,-5.33691 v -25.29774 z m -10.20273,13.593366 v -1.4351 c -0.53261,-0.07276 -1.06958,-0.109273 -1.60721,-0.109008 -6.46946,-1.32e-4 -11.71377,5.241396 -11.71377,11.706754 0,4.053417 2.0611,7.625689 5.19311,9.72701 -2.06573,-2.110449 -3.33851,-4.99917 -3.33851,-8.185415 0,-6.38294 5.11095,-11.573007 11.46638,-11.704241 z"
       id="path1199"
       style="stroke-width:0.132292" /></g></g></svg>
